<svg xmlns="http://www.w3.org/2000/svg" xmlns:xlink="http://www.w3.org/1999/xlink" x="0" y="0" version="1.1" viewBox="0 0 64 64" visibility="visible" xml:space="preserve" style="zoom:1"><g id="fill_outline" visibility="visible"><g id="pick_3_" visibility="visible"><g id="pick_2_" visibility="visible"><path d="M32 62c-.274 0-.537-.113-.727-.313-1.773-1.874-3.619-4.008-5.808-6.716-4.483-5.552-8.067-10.763-10.957-15.931-2.828-5.06-6.122-11.8-6.486-19.084-.318-6.38 2.596-14.003 8.784-16.228C21.62 2 27.099 2 31.933 2l.102 1V2c4.867 0 10.346 0 15.159 1.729 6.188 2.225 9.103 9.848 8.784 16.228-.364 7.284-3.658 14.024-6.486 19.084-2.89 5.168-6.474 10.379-10.957 15.93-2.188 2.709-4.034 4.843-5.808 6.717-.19.199-.453.312-.727.312zm-.034-58c-4.704 0-9.997 0-14.483 1.612-5.216 1.875-7.737 8.738-7.462 14.245.344 6.869 3.512 13.339 6.234 18.207 2.834 5.068 6.355 10.188 10.768 15.65 1.855 2.297 3.458 4.172 4.978 5.82 1.52-1.648 3.122-3.523 4.978-5.821 4.412-5.462 7.934-10.581 10.768-15.649 2.723-4.868 5.891-11.338 6.234-18.207.275-5.507-2.246-12.37-7.462-14.245C42.031 4 36.738 4 32.067 4h-.101z"/></g><path fill="#ED1C24" d="M46.518002,5.612 C42.030998,4 36.737999,4 32.067001,4 h-.102 c-4.704,0 -9.997,0 -14.483,1.612 c-5.216,1.875 -7.737,8.738 -7.462,14.245 c.344,6.869 3.512,13.339 6.234,18.207 c2.834,5.068 6.355,10.188 10.768,15.65 c1.855,2.297 3.458,4.172 4.978,5.82 c1.52,-1.648 3.122,-3.523 4.978,-5.821 c4.412,-5.462 7.934,-10.581 10.768,-15.649 c2.723,-4.868 5.891,-11.338 6.234,-18.207 c.275,-5.506 -2.247,-12.37 -7.462,-14.245 M33,49 h-6" visibility="visible"/><path d="M47.276009,3.729 C42.463009,2 36.984009,2 32.117008,2 v1 l-.102,-1 C27.182011,2 21.703011,2 16.890007,3.729 c-6.188,2.225 -9.103,9.848 -8.784,16.228 c.364,7.284 3.658,14.024 6.486,19.084 c2.89,5.168 6.474,10.379 10.957,15.931 c2.188,2.708 4.034,4.842 5.808,6.716 a1.002,1.002 0 0 0 1.453,-.001 c1.773,-1.874 3.619,-4.008 5.808,-6.717 c4.483,-5.551 8.067,-10.762 10.957,-15.93 c2.828,-5.06 6.122,-11.8 6.486,-19.084 c.318,-6.379 -2.596,-14.002 -8.785,-16.227 m6.786,16.128 c-.344,6.869 -3.512,13.339 -6.234,18.207 c-2.834,5.068 -6.355,10.188 -10.768,15.649 c-1.855,2.298 -3.458,4.173 -4.978,5.821 c-1.52,-1.648 -3.122,-3.523 -4.978,-5.82 c-4.412,-5.463 -7.934,-10.582 -10.768,-15.65 c-2.723,-4.868 -5.891,-11.338 -6.234,-18.207 c-.275,-5.507 2.246,-12.37 7.462,-14.245 C22.05201,4 27.345009,4 32.049007,4 h.102 c4.671,0 9.964,0 14.45,1.612 c5.215,1.875 7.737,8.739 7.461,14.245 z" visibility="visible"/><path fill="#ED1C24" d="M-2502.260254,-1580.854004 h-5.819 l1.806,-10.836 a.999,.999 0 0 0 -1.857,-.654 l-9,16 A.998,.998 0 0 0 -2516.260254,-1574.854004 h5.819 l-1.806,10.836 a.999,.999 0 0 0 1.858,.654 l9,-16 A1,1 0 0 0 -2502.260254,-1580.854004 m-7.076,11.54 l1.063,-6.376 A1,1 0 0 0 -2509.260254,-1576.854004 h-5.29 l5.366,-9.54 l-1.063,6.376 A1,1 0 0 0 -2509.260254,-1578.854004 h5.29 l-5.366,9.54 z" visibility="visible"/></g></g><metadata visibility="visible"><rdf:RDF xmlns:dc="http://purl.org/dc/elements/1.1/" xmlns:rdf="http://www.w3.org/1999/02/22-rdf-syntax-ns#" xmlns:rdfs="http://www.w3.org/2000/01/rdf-schema#"><rdf:Description about="https://iconscout.com/legal#licenses" dc:date="2018-04-07" dc:description="pick-guitar-music-rock-jazz" dc:format="image/svg+xml" dc:language="en" dc:publisher="Iconscout" dc:title="pick-guitar-music-rock-jazz"><dc:creator><rdf:Bag><rdf:li>Petai Jantrapoon</rdf:li></rdf:Bag></dc:creator></rdf:Description></rdf:RDF></metadata></svg>