<?xml version="1.0" encoding="UTF-8"?><!DOCTYPE svg PUBLIC "-//W3C//DTD SVG 1.1//EN" "http://www.w3.org/Graphics/SVG/1.1/DTD/svg11.dtd"><svg xmlns="http://www.w3.org/2000/svg" xmlns:xlink="http://www.w3.org/1999/xlink" version="1.1" x="0px" y="0px" viewBox="0 0 64 64" xml:space="preserve"><g id="fill_outline"><g id="pick_3_"><g id="pick_2_"><path d="M32 62c-.274 0-.537-.113-.727-.313-1.773-1.874-3.619-4.008-5.808-6.716-4.483-5.552-8.067-10.763-10.957-15.931-2.828-5.06-6.122-11.8-6.486-19.084-.318-6.38 2.596-14.003 8.784-16.228C21.62 2 27.099 2 31.933 2l.102 1V2c4.867 0 10.346 0 15.159 1.729 6.188 2.225 9.103 9.848 8.784 16.228-.364 7.284-3.658 14.024-6.486 19.084-2.89 5.168-6.474 10.379-10.957 15.93-2.188 2.709-4.034 4.843-5.808 6.717-.19.199-.453.312-.727.312zm-.034-58c-4.704 0-9.997 0-14.483 1.612-5.216 1.875-7.737 8.738-7.462 14.245.344 6.869 3.512 13.339 6.234 18.207 2.834 5.068 6.355 10.188 10.768 15.65 1.855 2.297 3.458 4.172 4.978 5.82 1.52-1.648 3.122-3.523 4.978-5.821 4.412-5.462 7.934-10.581 10.768-15.649 2.723-4.868 5.891-11.338 6.234-18.207.275-5.507-2.246-12.37-7.462-14.245C42.031 4 36.738 4 32.067 4h-.101z"/><path d="M30 39a1 1 0 0 1-.986-1.164L30.819 27H25a.999.999 0 0 1-.871-1.49l9-16a1 1 0 0 1 1.857.654L33.181 21H39a.999.999 0 0 1 .871 1.49l-9 16A.997.997 0 0 1 30 39zm-3.29-14H32a1.003 1.003 0 0 1 .987 1.165l-1.063 6.376L37.29 23H32a1.003 1.003 0 0 1-.987-1.165l1.063-6.376L26.71 25z"/><path d="M27 43h6v2h-6z"/><path d="M35 43h2v2h-2z"/><path d="M27 47h6v2h-6z"/><path d="M35 47h2v2h-2z"/></g><path fill="#ED1C24" d="M46.518 5.612C42.031 4 36.738 4 32.067 4h-.102c-4.704 0-9.997 0-14.483 1.612-5.216 1.875-7.737 8.738-7.462 14.245.344 6.869 3.512 13.339 6.234 18.207 2.834 5.068 6.355 10.188 10.768 15.65 1.855 2.297 3.458 4.172 4.978 5.82 1.52-1.648 3.122-3.523 4.978-5.821 4.412-5.462 7.934-10.581 10.768-15.649 2.723-4.868 5.891-11.338 6.234-18.207.275-5.506-2.247-12.37-7.462-14.245zM33 49h-6v-2h6v2zm0-4h-6v-2h6v2zm4 4h-2v-2h2v2zm0-4h-2v-2h2v2zm2.871-22.51l-9 16a.997.997 0 0 1-1.203.453 1 1 0 0 1-.654-1.107L30.819 27H25a.999.999 0 0 1-.871-1.49l9-16a1 1 0 0 1 1.857.654L33.181 21H39a.999.999 0 0 1 .871 1.49z"/><path fill="#FFF" d="M31.237 22.646a1.003 1.003 0 0 1-.224-.811l1.063-6.376L26.71 25H32a1.003 1.003 0 0 1 .987 1.165l-1.063 6.376L37.29 23H32a.998.998 0 0 1-.763-.354z"/><path d="M47.193 3.729C42.38 2 36.901 2 32.034 2v1l-.102-1C27.099 2 21.62 2 16.807 3.729c-6.188 2.225-9.103 9.848-8.784 16.228.364 7.284 3.658 14.024 6.486 19.084 2.89 5.168 6.474 10.379 10.957 15.931 2.188 2.708 4.034 4.842 5.808 6.716a1.002 1.002 0 0 0 1.453-.001c1.773-1.874 3.619-4.008 5.808-6.717 4.483-5.551 8.067-10.762 10.957-15.93 2.828-5.06 6.122-11.8 6.486-19.084.318-6.379-2.596-14.002-8.785-16.227zm6.786 16.128c-.344 6.869-3.512 13.339-6.234 18.207-2.834 5.068-6.355 10.188-10.768 15.649-1.855 2.298-3.458 4.173-4.978 5.821-1.52-1.648-3.122-3.523-4.978-5.82-4.412-5.463-7.934-10.582-10.768-15.65-2.723-4.868-5.891-11.338-6.234-18.207-.275-5.507 2.246-12.37 7.462-14.245C21.969 4 27.262 4 31.966 4h.102c4.671 0 9.964 0 14.45 1.612 5.215 1.875 7.737 8.739 7.461 14.245z"/><path d="M39 21h-5.819l1.806-10.836a.999.999 0 0 0-1.857-.654l-9 16A.998.998 0 0 0 25 27h5.819l-1.806 10.836a.999.999 0 0 0 1.858.654l9-16A1 1 0 0 0 39 21zm-7.076 11.54l1.063-6.376A1 1 0 0 0 32 25h-5.29l5.366-9.54-1.063 6.376A1 1 0 0 0 32 23h5.29l-5.366 9.54z"/><path d="M27 43h6v2h-6z"/><path d="M35 43h2v2h-2z"/><path d="M27 47h6v2h-6z"/><path d="M35 47h2v2h-2z"/></g></g><metadata><rdf:RDF xmlns:rdf="http://www.w3.org/1999/02/22-rdf-syntax-ns#" xmlns:rdfs="http://www.w3.org/2000/01/rdf-schema#" xmlns:dc="http://purl.org/dc/elements/1.1/"><rdf:Description about="https://iconscout.com/legal#licenses" dc:title="pick-guitar-music-rock-jazz" dc:description="pick-guitar-music-rock-jazz" dc:publisher="Iconscout" dc:date="2018-04-07" dc:format="image/svg+xml" dc:language="en"><dc:creator><rdf:Bag><rdf:li>Petai Jantrapoon</rdf:li></rdf:Bag></dc:creator></rdf:Description></rdf:RDF></metadata></svg>