<?xml version="1.0" encoding="UTF-8" standalone="yes"?>
<!DOCTYPE svg PUBLIC "-//W3C//DTD SVG 1.1//EN" "http://www.w3.org/Graphics/SVG/1.1/DTD/svg11.dtd">
<svg xmlns="http://www.w3.org/2000/svg" xmlns:xlink="http://www.w3.org/1999/xlink" version="1.1" x="0px" y="0px" viewBox="0 0 64 64" xml:space="preserve" style="zoom: 1;"><g id="fill_outline"><g id="atom_3_"><path d="M32,62 c-6.885,0 -11,-15.253 -11,-30 S25.115,2 32,2 s11,15.253 11,30 c0,6.75 -.77,13.106 -2.226,18.379 l-1.928,-.532 C40.235001,44.817001 41,38.479 41,32 c0,-16.501 -4.743,-28 -9,-28 s-9,11.499 -9,28 s4.743,28 9,28 c1.642,0 3.366,-1.674 4.854,-4.715 l1.796,.879 C36.290001,60.987999 33.730999,62 32,62  z " stroke="#000" stroke-width=".5px" fill="#29D745"></path><path d="M51.557999,49.978001 c-6.673,0 -16.694,-3.649 -25.48,-8.766 c-6.393,-3.723 -12.03,-8.077 -15.873,-12.26 l1.473,-1.354 c3.711,4.04 9.183,8.26 15.407,11.885 c14.498,8.444 27.183,10.347 29.5,6.777 c.44,-.678 .53,-1.579 .268,-2.678 c-1.214,-5.097 -9.413,-12.938 -19.938,-19.067 c-14.498,-8.442 -27.183,-10.348 -29.5,-6.777 c-.956,1.473 -.088,3.679 .808,5.27 l-1.742,.982 c-2.115,-3.754 -1.572,-6.064 -.744,-7.34 c3.715,-5.726 19.282,-1.375 32.185,6.138 c11.134,6.484 19.524,14.655 20.877,20.332 c.394,1.652 .213,3.076 -.536,4.23 c-1.186,1.827 -3.578,2.628 -6.705,2.628  z " stroke="#000" stroke-width="0.5px" fill="#FF8000"></path><path d="M12.442,50.092083 c-3.127,0 -5.519,-.801 -6.705,-2.628 c-.75,-1.155 -.93,-2.578 -.536,-4.23 c1.353,-5.677 9.743,-13.848 20.877,-20.332 c7.182,-4.183 14.756,-7.214 20.779,-8.318 l.36,1.967 c-5.805,1.064 -13.143,4.009 -20.133,8.08 C16.559999,30.759083 8.361,38.600082 7.147,43.697083 c-.262,1.099 -.172,2 .268,2.678 c2.318,3.572 15.004,1.665 29.5,-6.777 c10.525,-6.129 18.724,-13.97 19.938,-19.067 c.262,-1.099 .172,-2 -.268,-2.678 c-.746,-1.148 -2.42,-1.543 -3.693,-1.672 l.202,-1.99 c2.484,.252 4.224,1.118 5.169,2.574 c.75,1.155 .93,2.578 .536,4.23 c-1.353,5.677 -9.743,13.848 -20.877,20.332 c-8.785,5.115 -18.807,8.765 -25.48,8.765  z " stroke="#000" stroke-width="0.5px" fill="#05AEED"></path><circle stroke="#000" stroke-width="0.5px" cy="32" fill="#4D4D4D" r="6" cx="32"></circle><circle fill="#FFF" cx="32" cy="32" r="2"></circle><path d="M32,35 c-1.654,0 -3,-1.346 -3,-3 s1.346,-3 3,-3 s3,1.346 3,3 s-1.346,3 -3,3 m0,-4 c-.551,0 -1,.449 -1,1 s.449,1 1,1 s1,-.449 1,-1 s-.449,-1 -1,-1  z " stroke="#fff" stroke-width="0.25px" fill="#ED1C23"></path><circle cx="50" r="3" fill="#29D745" cy="15"></circle><path d="M50,19 c-2.206,0 -4,-1.794 -4,-4 s1.794,-4 4,-4 s4,1.794 4,4 s-1.794,4 -4,4 m0,-6 c-1.103,0 -2,.897 -2,2 s.897,2 2,2 s2,-.897 2,-2 s-.897,-2 -2,-2  z " stroke="#000" stroke-width="0.5px" z-index="999" fill="#05AEED"></path><circle cx="9px" r="3" fill="#05AEED" cy="26px"></circle><path d="M9.114081,30.11408 c-2.206,0 -4,-1.794 -4,-4 s1.794,-4 4,-4 s4,1.794 4,4 s-1.794,4 -4,4 m0,-6 c-1.103,0 -2,.897 -2,2 s.897,2 2,2 s2,-.897 2,-2 s-.897,-2 -2,-2  z " stroke="#000" stroke-width="0.5px" fill="#FF8000"></path><circle r="3" cx="39px" fill="#FF8000" cy="52.885918px"></circle><path d="M39,57 c-2.206,0 -4,-1.794 -4,-4 s1.794,-4 4,-4 s4,1.794 4,4 s-1.794,4 -4,4 m0,-6 c-1.103,0 -2,.897 -2,2 s.897,2 2,2 s2,-.897 2,-2 s-.897,-2 -2,-2  z " stroke="#000" stroke-width="0.5px" fill="#29D745"></path></g></g><metadata><rdf:RDF xmlns:rdf="http://www.w3.org/1999/02/22-rdf-syntax-ns#" xmlns:rdfs="http://www.w3.org/2000/01/rdf-schema#" xmlns:dc="http://purl.org/dc/elements/1.1/"><rdf:Description about="https://iconscout.com/legal#licenses" dc:title="atom-science-study-research-laboratory" dc:description="atom-science-study-research-laboratory" dc:publisher="Iconscout" dc:date="2018-05-02" dc:format="image/svg+xml" dc:language="en"><dc:creator><rdf:Bag><rdf:li>Petai Jantrapoon</rdf:li></rdf:Bag></dc:creator></rdf:Description></rdf:RDF></metadata></svg>