<?xml version="1.0" encoding="UTF-8" standalone="yes"?>
<!DOCTYPE svg PUBLIC "-//W3C//DTD SVG 1.1//EN" "http://www.w3.org/Graphics/SVG/1.1/DTD/svg11.dtd">
<svg xmlns="http://www.w3.org/2000/svg" xmlns:xlink="http://www.w3.org/1999/xlink" version="1.1" x="0px" y="0px" viewBox="0 0 64 64" xml:space="preserve" style="zoom: 1;"><g id="fill_outline"><g id="atom_3_"><circle fill="#4D4D4D" cx="32" cy="32" r="6"></circle><path d="M32 39c-3.86 0-7-3.14-7-7s3.14-7 7-7 7 3.14 7 7-3.14 7-7 7zm0-12c-2.757 0-5 2.243-5 5s2.243 5 5 5 5-2.243 5-5-2.243-5-5-5z"></path><circle fill="#FFF" cx="32" cy="32" r="2"></circle><path d="M32 35c-1.654 0-3-1.346-3-3s1.346-3 3-3 3 1.346 3 3-1.346 3-3 3zm0-4c-.551 0-1 .449-1 1s.449 1 1 1 1-.449 1-1-.449-1-1-1z"></path><circle cx="50" r="3" fill="#29D745" cy="15"></circle><path d="M50 19c-2.206 0-4-1.794-4-4s1.794-4 4-4 4 1.794 4 4-1.794 4-4 4zm0-6c-1.103 0-2 .897-2 2s.897 2 2 2 2-.897 2-2-.897-2-2-2z"></path><circle cx="9" r="3" fill="#05AEED" cy="26"></circle><path d="M9 30c-2.206 0-4-1.794-4-4s1.794-4 4-4 4 1.794 4 4-1.794 4-4 4zm0-6c-1.103 0-2 .897-2 2s.897 2 2 2 2-.897 2-2-.897-2-2-2z"></path><circle fill="#FF8000" cx="39" cy="53" r="3"></circle><path d="M39 57c-2.206 0-4-1.794-4-4s1.794-4 4-4 4 1.794 4 4-1.794 4-4 4zm0-6c-1.103 0-2 .897-2 2s.897 2 2 2 2-.897 2-2-.897-2-2-2z"></path><path d="M44 4h2v2h-2z"></path><path d="M16 8h2v2h-2z"></path><path d="M49 53h2v2h-2z"></path><path d="M15 53h2v2h-2z"></path><path d="M57 32h2v2h-2z"></path><path d="M5 32h2v2H5z"></path><path d="M32 62c-6.885 0-11-15.253-11-30S25.115 2 32 2s11 15.253 11 30c0 6.75-.77 13.106-2.226 18.379l-1.928-.532C40.235 44.817 41 38.479 41 32c0-16.501-4.743-28-9-28s-9 11.499-9 28 4.743 28 9 28c1.642 0 3.366-1.674 4.854-4.715l1.796.879C36.29 60.988 33.731 62 32 62z"></path><path d="M51.558 49.978c-6.673 0-16.694-3.649-25.48-8.766-6.393-3.723-12.03-8.077-15.873-12.26l1.473-1.354c3.711 4.04 9.183 8.26 15.407 11.885 14.498 8.444 27.183 10.347 29.5 6.777.44-.678.53-1.579.268-2.678-1.214-5.097-9.413-12.938-19.938-19.067-14.498-8.442-27.183-10.348-29.5-6.777-.956 1.473-.088 3.679.808 5.27l-1.742.982c-2.115-3.754-1.572-6.064-.744-7.34 3.715-5.726 19.282-1.375 32.185 6.138 11.134 6.484 19.524 14.655 20.877 20.332.394 1.652.213 3.076-.536 4.23-1.186 1.827-3.578 2.628-6.705 2.628z"></path><path d="M12.442 49.978c-3.127 0-5.519-.801-6.705-2.628-.75-1.155-.93-2.578-.536-4.23 1.353-5.677 9.743-13.848 20.877-20.332 7.182-4.183 14.756-7.214 20.779-8.318l.36 1.967c-5.805 1.064-13.143 4.009-20.133 8.08C16.56 30.645 8.361 38.486 7.147 43.583c-.262 1.099-.172 2 .268 2.678 2.318 3.572 15.004 1.665 29.5-6.777 10.525-6.129 18.724-13.97 19.938-19.067.262-1.099.172-2-.268-2.678-.746-1.148-2.42-1.543-3.693-1.672l.202-1.99c2.484.252 4.224 1.118 5.169 2.574.75 1.155.93 2.578.536 4.23-1.353 5.677-9.743 13.848-20.877 20.332-8.785 5.115-18.807 8.765-25.48 8.765z"></path></g></g><metadata><rdf:RDF xmlns:rdf="http://www.w3.org/1999/02/22-rdf-syntax-ns#" xmlns:rdfs="http://www.w3.org/2000/01/rdf-schema#" xmlns:dc="http://purl.org/dc/elements/1.1/"><rdf:Description about="https://iconscout.com/legal#licenses" dc:title="atom-science-study-research-laboratory" dc:description="atom-science-study-research-laboratory" dc:publisher="Iconscout" dc:date="2018-05-02" dc:format="image/svg+xml" dc:language="en"><dc:creator><rdf:Bag><rdf:li>Petai Jantrapoon</rdf:li></rdf:Bag></dc:creator></rdf:Description></rdf:RDF></metadata></svg>