<?xml version="1.0" encoding="UTF-8"?><!DOCTYPE svg PUBLIC "-//W3C//DTD SVG 1.1//EN" "http://www.w3.org/Graphics/SVG/1.1/DTD/svg11.dtd"><svg xmlns="http://www.w3.org/2000/svg" xmlns:xlink="http://www.w3.org/1999/xlink" version="1.1" x="0px" y="0px" viewBox="0 0 64 64" xml:space="preserve"><g id="fill_outline"><g id="pencil_3_"><path fill="#FFF" d="M38 52l-6 9-6-9V30h12z"/><path fill="#3EBBDD" d="M25.96 23.195A10.991 10.991 0 0 1 21 14c0-6.075 4.925-11 11-11s11 4.925 11 11c0 3.862-1.99 7.259-5.001 9.222V30H26l-.04-6.805z"/><path d="M37.999 31H26a1 1 0 0 1-1-.994l-.037-6.285A11.975 11.975 0 0 1 20 14c0-6.617 5.383-12 12-12s12 5.383 12 12c0 3.888-1.859 7.493-5.001 9.749V30a1 1 0 0 1-1 1zm-11.005-2h10.005v-5.778c0-.338.171-.653.454-.838A9.977 9.977 0 0 0 42 14c0-5.514-4.486-10-10-10S22 8.486 22 14c0 3.375 1.686 6.5 4.51 8.359.279.184.448.495.45.83L26.994 29z"/><path fill="#ED1C24" d="M26 26h12v26H26z"/><path fill="#454C54" d="M26 26h12v4H26z"/><path fill="#FFF" d="M30 30h4v22h-4z"/><path d="M26 51h12v2H26z"/><path d="M29 55h6v2h-6z"/><path fill="#4D4D4D" d="M35.333 56h-6.666L32 61z"/><path d="M32 62c-.334 0-.646-.167-.832-.445l-3.333-5A.998.998 0 0 1 28.667 55h6.666a1 1 0 0 1 .832 1.554l-3.333 5A1 1 0 0 1 32 62zm-1.465-5L32 59.197 33.465 57h-2.93z"/><path d="M29 30h2v22h-2z"/><path d="M33 43h2v9h-2z"/><path d="M33 39h2v2h-2z"/><path d="M33 30h2v7h-2z"/><path d="M26 25h12v2H26z"/><path d="M34 27a1 1 0 0 1-1-1v-6c0-.107.018-.214.052-.316l1.236-3.709-1.841.92a1 1 0 0 1-.895 0l-1.841-.92 1.236 3.709A.975.975 0 0 1 31 20v6a1 1 0 1 1-2 0v-5.838l-1.185-3.555a1.994 1.994 0 0 1 .586-2.144 1.991 1.991 0 0 1 2.205-.278l1.394.697 1.394-.697a1.994 1.994 0 0 1 2.205.278c.613.532.844 1.374.586 2.144L35 20.162V26a1 1 0 0 1-1 1z"/><path d="M52 11a1 1 0 0 1-1-1V6a1 1 0 1 1 2 0v4a1 1 0 0 1-1 1z"/><path d="M54 9h-4a1 1 0 1 1 0-2h4a1 1 0 1 1 0 2z"/><path d="M9 25a1 1 0 0 1-1-1v-4a1 1 0 1 1 2 0v4a1 1 0 0 1-1 1z"/><path d="M11 23H7a1 1 0 1 1 0-2h4a1 1 0 1 1 0 2z"/><path d="M50 26c-1.654 0-3-1.346-3-3s1.346-3 3-3 3 1.346 3 3-1.346 3-3 3zm0-4a1.001 1.001 0 0 0 0 2 1.001 1.001 0 0 0 0-2z"/><path d="M14 10c-1.654 0-3-1.346-3-3s1.346-3 3-3 3 1.346 3 3-1.346 3-3 3zm0-4a1.001 1.001 0 0 0 0 2 1.001 1.001 0 0 0 0-2z"/><path d="M44 30h2v2h-2z"/><path d="M17 26h2v2h-2z"/><path d="M55 16h2v2h-2z"/><path d="M7 14h2v2H7z"/><path d="M32 62c-.334 0-.646-.167-.832-.445l-6-9A1.006 1.006 0 0 1 25 52V30a1 1 0 0 1 1-1h12a1 1 0 0 1 1 1v22c0 .197-.059.391-.168.555l-6 9A1.001 1.001 0 0 1 32 62zm-5-10.303l5 7.5 5-7.5V31H27v20.697z"/></g></g><metadata><rdf:RDF xmlns:rdf="http://www.w3.org/1999/02/22-rdf-syntax-ns#" xmlns:rdfs="http://www.w3.org/2000/01/rdf-schema#" xmlns:dc="http://purl.org/dc/elements/1.1/"><rdf:Description about="https://iconscout.com/legal#licenses" dc:title="pencil-lightbulb-idea-education-stationary" dc:description="pencil-lightbulb-idea-education-stationary" dc:publisher="Iconscout" dc:date="2018-05-02" dc:format="image/svg+xml" dc:language="en"><dc:creator><rdf:Bag><rdf:li>Petai Jantrapoon</rdf:li></rdf:Bag></dc:creator></rdf:Description></rdf:RDF></metadata></svg>