<svg xmlns="http://www.w3.org/2000/svg" xmlns:svgjs="http://svgjs.com/svgjs" xmlns:xlink="http://www.w3.org/1999/xlink" id="SvgjsSvg1001" width="288" height="288" version="1.1"><g id="SvgjsG1008" transform="matrix(0.9167,0,0,0.9167,11.995011883544919,11.807774841117862)"><svg xmlns="http://www.w3.org/2000/svg" xmlns:xlink="http://www.w3.org/1999/xlink" width="288" height="288" x="0" y="0" version="1.1" viewBox="0 0 64 64" xml:space="preserve"><g id="object" fill="#000" class="color000 svgShape"><path fill="#fc701a" d="M29 11h6v10h-6z" class="color3EBBDD svgShape"/><path fill="#000" d="M36 22h-8V5.97A3.975 3.975 0 0 1 31.97 2C34.219 2 36 3.781 36 5.97V22zm-6-2h4V5.97C34 4.884 33.116 4 32.03 4 30.884 4 30 4.884 30 5.97V20z" class="color000 svgShape"/><path fill="#666" d="M35 42h-6a2 2 0 0 1-2-2V21h10v19a2 2 0 0 1-2 2z" class="color666 svgShape"/><path fill="#000" d="M35 43h-6c-1.654 0-3-1.346-3-3V20h12v20c0 1.654-1.346 3-3 3zm-7-21v18a1 1 0 0 0 1 1h6a1 1 0 0 0 1-1V22h-8z" class="color000 svgShape"/><path fill="#000" d="M29 10h6v2h-6z" class="color000 svgShape"/><path fill="#000" d="M33 61h-2v-1.02A2.983 2.983 0 0 1 33.98 57h4.039a.98.98 0 0 0 .98-.98c0-.58-.439-1.02-.98-1.02H23.98A2.984 2.984 0 0 1 21 52.02c0-1.683 1.337-3.02 2.98-3.02h16.04a.98.98 0 0 0 .98-.98c0-.58-.439-1.02-.98-1.02h-6.04A2.984 2.984 0 0 1 31 44.02V42h2v2.02c0 .541.439.98.98.98h6.039a2.983 2.983 0 0 1 2.98 2.98c0 1.683-1.337 3.02-2.98 3.02H23.98a.98.98 0 0 0-.98.98c0 .58.439 1.02.98 1.02h14.04A2.983 2.983 0 0 1 41 55.98c0 1.683-1.337 3.02-2.98 3.02h-4.04a.98.98 0 0 0-.98.98V61z" class="color000 svgShape"/></g><metadata><rdf:rdf xmlns:dc="http://purl.org/dc/elements/1.1/" xmlns:rdf="http://www.w3.org/1999/02/22-rdf-syntax-ns#" xmlns:rdfs="http://www.w3.org/2000/01/rdf-schema#"><rdf:description about="https://iconscout.com/legal#licenses" dc:date="2018-01-27" dc:description="music-sound-song-audio-media-adapter-cable" dc:format="image/svg+xml" dc:language="en" dc:publisher="Iconscout" dc:title="music-sound-song-audio-media-adapter-cable"><dc:creator><rdf:bag><rdf:li>Petai Jantrapoon</rdf:li></rdf:bag></dc:creator></rdf:description></rdf:rdf></metadata></svg></g></svg>