<svg xmlns="http://www.w3.org/2000/svg" width="64" height="64"><metadata>Petai Jantrapoon</metadata><g><title>background</title><rect id="canvas_background" width="66" height="66" x="-1" y="-1" fill="none"/></g><g><title>Layer 1</title><g id="fill_outline"><g id="pick_3_"><g id="pick_2_"><path id="svg_1" d="m32,62c-0.274,0 -0.537,-0.113 -0.727,-0.313c-1.773,-1.874 -3.619,-4.008 -5.808,-6.716c-4.483,-5.552 -8.067,-10.763 -10.957,-15.931c-2.828,-5.06 -6.122,-11.8 -6.486,-19.084c-0.318,-6.38 2.596,-14.003 8.784,-16.228c4.814,-1.728 10.293,-1.728 15.127,-1.728l0.102,1l0,-1c4.867,0 10.346,0 15.159,1.729c6.188,2.225 9.103,9.848 8.784,16.228c-0.364,7.284 -3.658,14.024 -6.486,19.084c-2.89,5.168 -6.474,10.379 -10.957,15.93c-2.188,2.709 -4.034,4.843 -5.808,6.717c-0.19,0.199 -0.453,0.312 -0.727,0.312zm-0.034,-58c-4.704,0 -9.997,0 -14.483,1.612c-5.216,1.875 -7.737,8.738 -7.462,14.245c0.344,6.869 3.512,13.339 6.234,18.207c2.834,5.068 6.355,10.188 10.768,15.65c1.855,2.297 3.458,4.172 4.978,5.82c1.52,-1.648 3.122,-3.523 4.978,-5.821c4.412,-5.462 7.934,-10.581 10.768,-15.649c2.723,-4.868 5.891,-11.338 6.234,-18.207c0.275,-5.507 -2.246,-12.37 -7.462,-14.245c-4.488,-1.612 -9.781,-1.612 -14.452,-1.612l-0.101,0z"/></g><path id="svg_3" d="m47.27601,3.729c-4.813,-1.729 -10.292,-1.729 -15.159,-1.729l0,1l-0.102,-1c-4.833,0 -10.312,0 -15.125,1.729c-6.188,2.225 -9.103,9.848 -8.784,16.228c0.364,7.284 3.658,14.024 6.486,19.084c2.89,5.168 6.474,10.379 10.957,15.931c2.188,2.708 4.034,4.842 5.808,6.716a1.002,1.002 0 0 0 1.453,-0.001c1.773,-1.874 3.619,-4.008 5.808,-6.717c4.483,-5.551 8.067,-10.762 10.957,-15.93c2.828,-5.06 6.122,-11.8 6.486,-19.084c0.318,-6.379 -2.596,-14.002 -8.785,-16.227m6.786,16.128c-0.344,6.869 -3.512,13.339 -6.234,18.207c-2.834,5.068 -6.355,10.188 -10.768,15.649c-1.855,2.298 -3.458,4.173 -4.978,5.821c-1.52,-1.648 -3.122,-3.523 -4.978,-5.82c-4.412,-5.463 -7.934,-10.582 -10.768,-15.65c-2.723,-4.868 -5.891,-11.338 -6.234,-18.207c-0.275,-5.507 2.246,-12.37 7.462,-14.245c4.488,-1.612 9.781,-1.612 14.485,-1.612l0.102,0c4.671,0 9.964,0 14.45,1.612c5.215,1.875 7.737,8.739 7.461,14.245z"/><path id="svg_2" fill="#293741" stroke="null" d="m47.62988,4.14894c-4.8094,-1.7297 -10.48271,-1.7297 -15.48933,-1.7297l-0.10933,0c-5.04199,0 -10.7153,0 -15.52363,1.7297c-5.59078,2.01191 -8.29292,9.37604 -7.99816,15.28515c0.36872,7.37056 3.76435,14.31299 6.68193,19.53644c3.03762,5.43806 6.81161,10.93191 11.5417,16.79274c1.98828,2.46472 3.70646,4.47663 5.33567,6.24496c1.62922,-1.76833 3.34632,-3.78024 5.33568,-6.24604c4.72901,-5.86082 8.50407,-11.3536 11.5417,-16.79166c2.91865,-5.22345 6.31428,-12.16588 6.68192,-19.53644c0.29476,-5.90804 -2.40845,-13.27324 -7.99815,-15.28515m-14.4893,46.55612l-6.43111,0"/><path id="svg_4" fill="#ED1C24" d="m-2502.26025,-1580.854l-5.819,0l1.806,-10.836a0.999,0.999 0 0 0 -1.857,-0.654l-9,16a0.998,0.998 0 0 0 0.87,1.49l5.819,0l-1.806,10.836a0.999,0.999 0 0 0 1.858,0.654l9,-16a1,1 0 0 0 -0.871,-1.49m-7.076,11.54l1.063,-6.376a1,1 0 0 0 -0.987,-1.164l-5.29,0l5.366,-9.54l-1.063,6.376a1,1 0 0 0 0.987,1.164l5.29,0l-5.366,9.54z"/><metadata>Petai Jantrapoon</metadata></g></g><metadata>Petai Jantrapoon</metadata><g id="svg_22" stroke="null"><g id="svg_8" stroke="null" transform="matrix(0.6569282667104221,0,0,0.6572246812488,-157.43156720727112,-162.50492219386086)"><path id="svg_10" fill="#3EBBDD" stroke="null" d="m285.26452,265.06028l6,0l0,40l-6,0l0,-40z"/><path id="svg_11" stroke="null" d="m292.26452,306.06028l-8,0l0,-42l8,0l0,42zm-6,-2l4,0l0,-38l-4,0l0,38z"/><path id="svg_12" fill="#3EBBDD" stroke="null" d="m275.26452,272.06028l6,0l0,26l-6,0l0,-26z"/><path id="svg_13" stroke="null" d="m282.26452,299.06028l-8,0l0,-28l8,0l0,28zm-6,-2l4,0l0,-24l-4,0l0,24z"/><path id="svg_14" fill="#3EBBDD" stroke="null" d="m295.26452,272.06028l6,0l0,26l-6,0l0,-26z"/><path id="svg_15" stroke="null" d="m302.26452,299.06028l-8,0l0,-28l8,0l0,28zm-6,-2l4,0l0,-24l-4,0l0,24z"/><path id="svg_16" fill="#3EBBDD" stroke="null" d="m265.26452,278.06028l6,0l0,14l-6,0l0,-14z"/><path id="svg_17" stroke="null" d="m272.26452,293.06028l-8,0l0,-16l8,0l0,16zm-6,-2l4,0l0,-12l-4,0l0,12z"/><path id="svg_18" fill="#3EBBDD" stroke="null" d="m305.26452,278.06028l6,0l0,14l-6,0l0,-14z"/><path id="svg_19" stroke="null" d="m312.26452,293.06028l-8,0l0,-16l8,0l0,16zm-6,-2l4,0l0,-12l-4,0l0,12z"/><path id="svg_20" stroke="null" d="m258.26452,284.06028l4,0l0,2l-4,0l0,-2z"/><path id="svg_21" stroke="null" d="m314.26452,284.06028l4,0l0,2l-4,0l0,-2z"/></g></g></g></svg>