<?xml version="1.0" encoding="UTF-8"?><!DOCTYPE svg PUBLIC "-//W3C//DTD SVG 1.1//EN" "http://www.w3.org/Graphics/SVG/1.1/DTD/svg11.dtd"><svg xmlns="http://www.w3.org/2000/svg" xmlns:xlink="http://www.w3.org/1999/xlink" version="1.1" x="0px" y="0px" viewBox="0 0 64 64" xml:space="preserve"><g id="object"><path fill="#3EBBDD" d="M29 12h6v40h-6z"/><path d="M36 53h-8V11h8v42zm-6-2h4V13h-4v38z"/><path fill="#3EBBDD" d="M19 19h6v26h-6z"/><path d="M26 46h-8V18h8v28zm-6-2h4V20h-4v24z"/><path fill="#3EBBDD" d="M39 19h6v26h-6z"/><path d="M46 46h-8V18h8v28zm-6-2h4V20h-4v24z"/><path fill="#3EBBDD" d="M9 25h6v14H9z"/><path d="M16 40H8V24h8v16zm-6-2h4V26h-4v12z"/><path fill="#3EBBDD" d="M49 25h6v14h-6z"/><path d="M56 40h-8V24h8v16zm-6-2h4V26h-4v12z"/><path d="M2 31h4v2H2z"/><path d="M58 31h4v2h-4z"/></g><metadata><rdf:RDF xmlns:rdf="http://www.w3.org/1999/02/22-rdf-syntax-ns#" xmlns:rdfs="http://www.w3.org/2000/01/rdf-schema#" xmlns:dc="http://purl.org/dc/elements/1.1/"><rdf:Description about="https://iconscout.com/legal#licenses" dc:title="music-sound-song-audio-rhythm-volume-wave" dc:description="music-sound-song-audio-rhythm-volume-wave" dc:publisher="Iconscout" dc:date="2018-01-27" dc:format="image/svg+xml" dc:language="en"><dc:creator><rdf:Bag><rdf:li>Petai Jantrapoon</rdf:li></rdf:Bag></dc:creator></rdf:Description></rdf:RDF></metadata></svg>