<?xml version="1.0"?>
<svg xmlns="http://www.w3.org/2000/svg" xmlns:xlink="http://www.w3.org/1999/xlink" version="1.1" id="Capa_1" x="0px" y="0px" width="512px" height="512px" viewBox="0 0 409.747 409.747" style="enable-background:new 0 0 409.747 409.747;" xml:space="preserve"><g><g>
	<path d="M130.046,272.984c14.541,36.359,74.177,62.965,110.747,44.021c13.589,32.076,17.264,105.788-54.609,83.876   c-0.196,0.1-3.115-1.095-5.983-3.366c16.126,3.711,32.156-8.584,32.156-25.596c0-14.475-11.806-26.272-26.277-26.272   c-37.523,0-33.41,58.031,6.298,63.277c16.436,2.159,28.988-0.061,38.409-5.154c33.831-18.346,22.61-58.424,15.301-88.407   c5.514-3.848,31.879-15.686,37.108-42.371c6.256-46.967-24.341-65.493-60.933-61.778l-10.379-47.135   c11.726-10.015,23.363-20.71,31.835-33.687c25.819-39.543,20.646-90.375-8.355-127.648c-2.865-3.673-7.903-3.641-10.824-0.008   c-32.25,40.077-33.023,72.226-29.32,97.307c1.587,9.72,3.963,19.392,5.182,29.14c-9.38,8.215-19.586,17.011-29.296,26.817   C141.884,186.404,115.004,229.155,130.046,272.984z M243.759,308.795c-5.743-26.068-10.889-49.388-16.531-75.023   C274.011,233.171,278.892,288.093,243.759,308.795z M214.08,46.707c5.278-10.874,11.746-23.455,22.382-20.765   c15.265,3.855,18.727,28.174,10.784,49.598c-7.414,20.013-22.354,31.991-25.543,35.985c-5.987,7.506-12.109,13.333-17.651,14.941   C200.912,109.72,202.449,70.611,214.08,46.707z M207.097,168.104l9.516,43.106c-38.788,6.829-57.951,59.274-20.869,76.975   c4.209,2.004,4.634,0.914,1.603-2.612c-15.828-18.475-4.122-50.205,24.255-51.788c5.927,26.865,11.225,50.874,17.144,77.647   c-34.953,16.29-79.611,2.244-91.341-37.129c-1.485-2.208-1.641-4.584-1.657-7.137C137.855,218.929,175.5,194.553,207.097,168.104z" data-original="#000000" class="active-path" data-old_color="#000000" fill="#FFFFFF"/>
</g></g> </svg>
