<svg id="Capa_1" enable-background="new 0 0 512 512" height="512" viewBox="0 0 512 512" width="512" xmlns="http://www.w3.org/2000/svg"><g><path d="m383.884 178.896 46.09-69.135c6.127-9.191 3.644-21.608-5.547-27.735s-21.608-3.643-27.735 5.547l-23.11 34.664-19.238-105.815c-1.729-9.509-10.012-16.422-19.678-16.422h-157.333c-9.666 0-17.948 6.913-19.677 16.422l-78.667 432.667c-2.23 12.261 7.199 23.578 19.677 23.578h19.334v19.333c0 11.046 8.954 20 20 20s20-8.954 20-20v-19.333h196v19.333c0 11.046 8.954 20 20 20s20-8.954 20-20v-19.333h19.333c12.461 0 21.91-11.298 19.677-23.578zm-261.253 253.771 14.182-78h238.375l14.182 78zm245.283-118h-74.544l58.57-87.855zm-173.889-274.667h123.95l23.664 130.152-65.639 98.459v-169.944c0-11.046-8.954-20-20-20s-20 8.954-20 20v58.667h-10c-11.046 0-20 8.954-20 20s8.954 20 20 20h10v38.666h-10c-11.046 0-20 8.954-20 20s8.954 20 20 20h10v38.667h-91.915z"/></g></svg>